<svg id="sw-js-blob-svg" viewBox="0 0 100 100" xmlns="http://www.w3.org/2000/svg">
    <defs>
        <linearGradient id="sw-gradient" x1="0" x2="1" y1="1" y2="0">
            <stop id="stop1" stop-color="rgba(255, 81.917, 0, 1)" offset="0%"></stop>
            <stop id="stop2" stop-color="rgba(108.783, 141.071, 255, 1)" offset="100%"></stop>
        </linearGradient>
    </defs>
    <path fill="url(#sw-gradient)"
        d="M25.3,-28.8C33.5,-23.3,41.2,-16,42.4,-7.7C43.6,0.6,38.2,9.7,32.6,18.2C27,26.7,21.2,34.5,13.1,38.4C5.1,42.3,-5.2,42.3,-14.6,39.3C-24,36.2,-32.6,30,-36.5,21.8C-40.4,13.6,-39.6,3.4,-36.8,-5.5C-34,-14.3,-29.3,-21.8,-22.8,-27.6C-16.4,-33.4,-8.2,-37.6,0.2,-37.8C8.6,-38.1,17.2,-34.4,25.3,-28.8Z"
        width="100%" height="100%" transform="translate(50 50)" stroke-width="0" style="transition: all 0.3s ease 0s;">
    </path>
</svg>